# xmcd
#
# Track frame offsets: 
#        150
#        13920
#        28475
#        43985
#        57832
#        73530
#        86537
#        104440
#        120272
#        137900
#
# Disc length: 2032 seconds
#
# Revision: 2
# Processed by: cddbd v1.5.2PL0 Copyright (c) Steve Scherf et al.
# Submitted via: ExactAudioCopy v1.3
#
DISCID=8d07ee0a
DTITLE=The Oak Ridge Boys - Greatest Hits Volume Three
DYEAR=1989
DGENRE=Country
TTITLE0=Gonna Take A Lot Of River
TTITLE1=True Heart
TTITLE2=Little Things
TTITLE3=This Crazy Love
TTITLE4=Come On In (You Did the Best You Could Do)
TTITLE5=Bobbie Sue
TTITLE6=It Takes A Litlle Rain (To Make Love Grow)
TTITLE7=Touch A Hand, Make A Friend
TTITLE8=Bridges And Walls
TTITLE9=Take Pride In America
EXTD=
EXTT0=
EXTT1=
EXTT2=
EXTT3=
EXTT4=
EXTT5=
EXTT6=
EXTT7=
EXTT8=
EXTT9=
PLAYORDER=
